<svg width="350" height="164" viewBox="0 0 350 164" fill="none" xmlns="http://www.w3.org/2000/svg">
<line x1="61" y1="15" x2="349" y2="15" stroke="#E5E5F3" stroke-dasharray="2 4"/>
<line x1="61" y1="51" x2="349" y2="51" stroke="#E5E5F3" stroke-dasharray="2 4"/>
<line x1="61" y1="87" x2="349" y2="87" stroke="#E5E5F3" stroke-dasharray="2 4"/>
<line x1="61" y1="123" x2="349" y2="123" stroke="#E5E5F3" stroke-dasharray="2 4"/>
<g filter="url(#filter0_d_1_124)">
<rect x="74" y="103" width="20" height="21" rx="4" fill="#2D91FE"/>
</g>
<g filter="url(#filter1_d_1_124)">
<rect x="114.833" y="29" width="20" height="95" rx="4" fill="#2D91FE"/>
</g>
<g filter="url(#filter2_d_1_124)">
<rect x="155.667" y="62" width="20" height="62" rx="4" fill="#2D91FE"/>
</g>
<g filter="url(#filter3_d_1_124)">
<rect x="196.5" y="87" width="20" height="37" rx="4" fill="#2D91FE"/>
</g>
<g filter="url(#filter4_d_1_124)">
<rect x="237.333" y="26" width="20" height="98" rx="4" fill="#2D91FE"/>
</g>
<g filter="url(#filter5_d_1_124)">
<rect x="278.167" y="58" width="20" height="66" rx="4" fill="#2D91FE"/>
</g>
<g filter="url(#filter6_d_1_124)">
<rect x="319" y="12" width="20" height="112" rx="4" fill="#4BDFFF"/>
</g>
<path opacity="0.5" d="M68.22 160.144C67.356 160.144 66.66 159.836 66.132 159.22L66.648 158.464C67.088 158.992 67.592 159.256 68.16 159.256C68.648 159.256 69.036 159.104 69.324 158.8C69.62 158.488 69.768 158.08 69.768 157.576V151.996H70.764V157.588C70.764 158.42 70.528 159.056 70.056 159.496C69.584 159.928 68.972 160.144 68.22 160.144ZM77.3593 160H76.4593V159.34C75.9713 159.876 75.3313 160.144 74.5393 160.144C74.0033 160.144 73.5313 159.972 73.1233 159.628C72.7153 159.284 72.5113 158.816 72.5113 158.224C72.5113 157.616 72.7113 157.148 73.1113 156.82C73.5193 156.484 73.9953 156.316 74.5393 156.316C75.3633 156.316 76.0033 156.58 76.4593 157.108V156.064C76.4593 155.68 76.3233 155.38 76.0513 155.164C75.7793 154.948 75.4273 154.84 74.9953 154.84C74.3153 154.84 73.7233 155.108 73.2193 155.644L72.7993 155.02C73.4153 154.38 74.1873 154.06 75.1153 154.06C75.7793 154.06 76.3193 154.22 76.7353 154.54C77.1513 154.86 77.3593 155.352 77.3593 156.016V160ZM74.8633 159.496C75.5833 159.496 76.1153 159.256 76.4593 158.776V157.684C76.1153 157.204 75.5833 156.964 74.8633 156.964C74.4473 156.964 74.1033 157.084 73.8313 157.324C73.5673 157.556 73.4353 157.86 73.4353 158.236C73.4353 158.604 73.5673 158.908 73.8313 159.148C74.1033 159.38 74.4473 159.496 74.8633 159.496ZM84.2154 160H83.3154V156.208C83.3154 155.72 83.2034 155.376 82.9794 155.176C82.7554 154.968 82.4354 154.864 82.0194 154.864C81.6834 154.864 81.3554 154.952 81.0354 155.128C80.7234 155.304 80.4794 155.516 80.3034 155.764V160H79.4034V154.204H80.3034V155.044C80.5274 154.78 80.8274 154.552 81.2034 154.36C81.5794 154.16 81.9674 154.06 82.3674 154.06C83.5994 154.06 84.2154 154.684 84.2154 155.932V160Z" fill="#0D0F52"/>
<path opacity="0.5" d="M109.765 160H108.769V151.996H114.013V152.884H109.765V155.464H113.929V156.352H109.765V160ZM118.187 160.144C117.323 160.144 116.615 159.864 116.063 159.304C115.511 158.736 115.235 158 115.235 157.096C115.235 156.248 115.507 155.532 116.051 154.948C116.595 154.356 117.275 154.06 118.091 154.06C118.947 154.06 119.623 154.356 120.119 154.948C120.623 155.532 120.875 156.272 120.875 157.168V157.396H116.183C116.223 157.964 116.431 158.44 116.807 158.824C117.183 159.208 117.671 159.4 118.271 159.4C118.991 159.4 119.587 159.156 120.059 158.668L120.491 159.256C119.899 159.848 119.131 160.144 118.187 160.144ZM119.987 156.736C119.979 156.24 119.811 155.796 119.483 155.404C119.155 155.004 118.687 154.804 118.079 154.804C117.503 154.804 117.047 155 116.711 155.392C116.383 155.784 116.207 156.232 116.183 156.736H119.987ZM123.473 158.428C123.633 158.684 123.873 158.9 124.193 159.076C124.521 159.252 124.857 159.34 125.201 159.34C125.777 159.34 126.233 159.132 126.569 158.716C126.905 158.3 127.073 157.764 127.073 157.108C127.073 156.452 126.905 155.916 126.569 155.5C126.233 155.076 125.777 154.864 125.201 154.864C124.857 154.864 124.521 154.956 124.193 155.14C123.873 155.316 123.633 155.536 123.473 155.8V158.428ZM123.473 160H122.573V151.996H123.473V155.08C123.977 154.4 124.629 154.06 125.429 154.06C126.189 154.06 126.809 154.34 127.289 154.9C127.769 155.452 128.009 156.188 128.009 157.108C128.009 158.036 127.769 158.776 127.289 159.328C126.817 159.872 126.197 160.144 125.429 160.144C124.621 160.144 123.969 159.808 123.473 159.136V160Z" fill="#0D0F52"/>
<path opacity="0.5" d="M159.439 160H158.443V153.412L155.719 160H155.311L152.599 153.412V160H151.603V151.996H153.031L155.515 158.02L158.011 151.996H159.439V160ZM166.034 160H165.134V159.34C164.646 159.876 164.006 160.144 163.214 160.144C162.678 160.144 162.206 159.972 161.798 159.628C161.39 159.284 161.186 158.816 161.186 158.224C161.186 157.616 161.386 157.148 161.786 156.82C162.194 156.484 162.67 156.316 163.214 156.316C164.038 156.316 164.678 156.58 165.134 157.108V156.064C165.134 155.68 164.998 155.38 164.726 155.164C164.454 154.948 164.102 154.84 163.67 154.84C162.99 154.84 162.398 155.108 161.894 155.644L161.474 155.02C162.09 154.38 162.862 154.06 163.79 154.06C164.454 154.06 164.994 154.22 165.41 154.54C165.826 154.86 166.034 155.352 166.034 156.016V160ZM163.538 159.496C164.258 159.496 164.79 159.256 165.134 158.776V157.684C164.79 157.204 164.258 156.964 163.538 156.964C163.122 156.964 162.778 157.084 162.506 157.324C162.242 157.556 162.11 157.86 162.11 158.236C162.11 158.604 162.242 158.908 162.506 159.148C162.778 159.38 163.122 159.496 163.538 159.496ZM168.978 160H168.078V154.204H168.978V155.14C169.514 154.436 170.158 154.084 170.91 154.084V155.008C170.798 154.984 170.678 154.972 170.55 154.972C170.278 154.972 169.982 155.068 169.662 155.26C169.342 155.452 169.114 155.664 168.978 155.896V160Z" fill="#0D0F52"/>
<path opacity="0.5" d="M201.288 160H200.148L199.44 158.224H195.456L194.748 160H193.608L196.824 151.996H198.06L201.288 160ZM199.14 157.336L197.448 153.028L195.744 157.336H199.14ZM205.394 160.144C204.578 160.144 203.926 159.804 203.438 159.124V162.208H202.538V154.204H203.438V155.068C203.654 154.764 203.934 154.52 204.278 154.336C204.622 154.152 204.994 154.06 205.394 154.06C206.162 154.06 206.782 154.336 207.254 154.888C207.734 155.432 207.974 156.168 207.974 157.096C207.974 158.024 207.734 158.764 207.254 159.316C206.782 159.868 206.162 160.144 205.394 160.144ZM205.166 159.34C205.734 159.34 206.186 159.132 206.522 158.716C206.858 158.292 207.026 157.752 207.026 157.096C207.026 156.44 206.858 155.904 206.522 155.488C206.186 155.072 205.734 154.864 205.166 154.864C204.822 154.864 204.486 154.956 204.158 155.14C203.838 155.316 203.598 155.532 203.438 155.788V158.404C203.598 158.668 203.838 158.892 204.158 159.076C204.486 159.252 204.822 159.34 205.166 159.34ZM210.546 160H209.646V154.204H210.546V155.14C211.082 154.436 211.726 154.084 212.478 154.084V155.008C212.366 154.984 212.246 154.972 212.118 154.972C211.846 154.972 211.55 155.068 211.23 155.26C210.91 155.452 210.682 155.664 210.546 155.896V160Z" fill="#0D0F52"/>
<path opacity="0.5" d="M244.105 160H243.109V153.412L240.385 160H239.977L237.265 153.412V160H236.269V151.996H237.697L240.181 158.02L242.677 151.996H244.105V160ZM250.7 160H249.8V159.34C249.312 159.876 248.672 160.144 247.88 160.144C247.344 160.144 246.872 159.972 246.464 159.628C246.056 159.284 245.852 158.816 245.852 158.224C245.852 157.616 246.052 157.148 246.452 156.82C246.86 156.484 247.336 156.316 247.88 156.316C248.704 156.316 249.344 156.58 249.8 157.108V156.064C249.8 155.68 249.664 155.38 249.392 155.164C249.12 154.948 248.768 154.84 248.336 154.84C247.656 154.84 247.064 155.108 246.56 155.644L246.14 155.02C246.756 154.38 247.528 154.06 248.456 154.06C249.12 154.06 249.66 154.22 250.076 154.54C250.492 154.86 250.7 155.352 250.7 156.016V160ZM248.204 159.496C248.924 159.496 249.456 159.256 249.8 158.776V157.684C249.456 157.204 248.924 156.964 248.204 156.964C247.788 156.964 247.444 157.084 247.172 157.324C246.908 157.556 246.776 157.86 246.776 158.236C246.776 158.604 246.908 158.908 247.172 159.148C247.444 159.38 247.788 159.496 248.204 159.496ZM252.421 162.268L252.565 161.452C252.709 161.516 252.873 161.548 253.057 161.548C253.265 161.548 253.437 161.504 253.573 161.416C253.709 161.328 253.825 161.168 253.921 160.936L254.305 160.06L251.881 154.204H252.853L254.785 158.956L256.705 154.204H257.689L254.785 161.176C254.465 161.944 253.897 162.336 253.081 162.352C252.841 162.352 252.621 162.324 252.421 162.268Z" fill="#0D0F52"/>
<path opacity="0.5" d="M282.387 160.144C281.523 160.144 280.827 159.836 280.299 159.22L280.815 158.464C281.255 158.992 281.759 159.256 282.327 159.256C282.815 159.256 283.203 159.104 283.491 158.8C283.787 158.488 283.935 158.08 283.935 157.576V151.996H284.931V157.588C284.931 158.42 284.695 159.056 284.223 159.496C283.751 159.928 283.139 160.144 282.387 160.144ZM291.814 160H290.914V159.184C290.674 159.456 290.37 159.684 290.002 159.868C289.642 160.052 289.258 160.144 288.85 160.144C287.618 160.144 287.002 159.528 287.002 158.296V154.204H287.902V158.02C287.902 158.5 288.01 158.84 288.226 159.04C288.45 159.24 288.774 159.34 289.198 159.34C289.534 159.34 289.858 159.256 290.17 159.088C290.49 158.92 290.738 158.712 290.914 158.464V154.204H291.814V160ZM298.663 160H297.763V156.208C297.763 155.72 297.651 155.376 297.427 155.176C297.203 154.968 296.883 154.864 296.467 154.864C296.131 154.864 295.803 154.952 295.483 155.128C295.171 155.304 294.927 155.516 294.751 155.764V160H293.851V154.204H294.751V155.044C294.975 154.78 295.275 154.552 295.651 154.36C296.027 154.16 296.415 154.06 296.815 154.06C298.047 154.06 298.663 154.684 298.663 155.932V160Z" fill="#0D0F52"/>
<path opacity="0.5" d="M324.22 160.144C323.356 160.144 322.66 159.836 322.132 159.22L322.648 158.464C323.088 158.992 323.592 159.256 324.16 159.256C324.648 159.256 325.036 159.104 325.324 158.8C325.62 158.488 325.768 158.08 325.768 157.576V151.996H326.764V157.588C326.764 158.42 326.528 159.056 326.056 159.496C325.584 159.928 324.972 160.144 324.22 160.144ZM333.647 160H332.747V159.184C332.507 159.456 332.203 159.684 331.835 159.868C331.475 160.052 331.091 160.144 330.683 160.144C329.451 160.144 328.835 159.528 328.835 158.296V154.204H329.735V158.02C329.735 158.5 329.843 158.84 330.059 159.04C330.283 159.24 330.607 159.34 331.031 159.34C331.367 159.34 331.691 159.256 332.003 159.088C332.323 158.92 332.571 158.712 332.747 158.464V154.204H333.647V160ZM336.585 160H335.685V151.996H336.585V160Z" fill="#0D0F52"/>
<path opacity="0.5" d="M7.62797 17.12C7.09463 17.12 6.6213 17.0167 6.20797 16.81C5.79463 16.6033 5.47797 16.34 5.25797 16.02L5.74797 15.5C5.94797 15.7667 6.2113 15.98 6.53797 16.14C6.86463 16.3 7.2213 16.38 7.60797 16.38C8.09463 16.38 8.47463 16.27 8.74797 16.05C9.02797 15.8233 9.16797 15.5167 9.16797 15.13C9.16797 14.73 9.01797 14.4333 8.71797 14.24C8.42463 14.0467 8.0213 13.95 7.50797 13.95C7.11463 13.95 6.88463 13.9533 6.81797 13.96V13.2C6.8913 13.2067 7.1213 13.21 7.50797 13.21C7.9613 13.21 8.3313 13.12 8.61797 12.94C8.9113 12.7533 9.05797 12.4767 9.05797 12.11C9.05797 11.7567 8.91463 11.48 8.62797 11.28C8.34797 11.0733 7.99463 10.97 7.56797 10.97C6.89463 10.97 6.30797 11.24 5.80797 11.78L5.34797 11.26C5.91463 10.5733 6.67463 10.23 7.62797 10.23C8.28797 10.23 8.82797 10.39 9.24797 10.71C9.67463 11.0233 9.88797 11.4567 9.88797 12.01C9.88797 12.45 9.7413 12.8033 9.44797 13.07C9.15463 13.33 8.8213 13.4933 8.44797 13.56C8.81463 13.5933 9.1613 13.7533 9.48797 14.04C9.8213 14.3267 9.98797 14.7133 9.98797 15.2C9.98797 15.7667 9.77463 16.23 9.34797 16.59C8.9213 16.9433 8.34797 17.12 7.62797 17.12ZM13.7944 17.12C13.3544 17.12 12.9644 17.02 12.6244 16.82C12.291 16.6133 12.0244 16.34 11.8244 16C11.631 15.66 11.4844 15.2933 11.3844 14.9C11.291 14.5067 11.2444 14.0967 11.2444 13.67C11.2444 13.2433 11.291 12.8333 11.3844 12.44C11.4844 12.0467 11.631 11.6833 11.8244 11.35C12.0244 11.01 12.291 10.74 12.6244 10.54C12.9644 10.3333 13.3544 10.23 13.7944 10.23C14.2277 10.23 14.6144 10.3333 14.9544 10.54C15.2944 10.74 15.561 11.01 15.7544 11.35C15.9544 11.6833 16.101 12.0467 16.1944 12.44C16.2944 12.8333 16.3444 13.2433 16.3444 13.67C16.3444 14.0967 16.2944 14.5067 16.1944 14.9C16.101 15.2933 15.9544 15.66 15.7544 16C15.561 16.34 15.2944 16.6133 14.9544 16.82C14.6144 17.02 14.2277 17.12 13.7944 17.12ZM12.7944 15.97C13.061 16.2433 13.3944 16.38 13.7944 16.38C14.1944 16.38 14.5277 16.2433 14.7944 15.97C15.061 15.69 15.2444 15.3567 15.3444 14.97C15.4444 14.5833 15.4944 14.15 15.4944 13.67C15.4944 13.19 15.4444 12.7567 15.3444 12.37C15.2444 11.9833 15.061 11.6533 14.7944 11.38C14.5277 11.1067 14.1944 10.97 13.7944 10.97C13.3944 10.97 13.061 11.1067 12.7944 11.38C12.5277 11.6533 12.3444 11.9833 12.2444 12.37C12.1444 12.7567 12.0944 13.19 12.0944 13.67C12.0944 14.15 12.1444 14.5833 12.2444 14.97C12.3444 15.3567 12.5277 15.69 12.7944 15.97ZM22.0574 17H21.0974L19.3574 14.83L18.5574 15.62V17H17.8074V10.33H18.5574V14.74L21.0974 12.17H22.0474L19.9074 14.36L22.0574 17ZM28.1123 17.12C27.0323 17.12 26.1789 16.7667 25.5523 16.06L26.0423 15.43C26.6089 16.0633 27.3089 16.38 28.1423 16.38C28.6823 16.38 29.0789 16.2667 29.3323 16.04C29.5856 15.8067 29.7123 15.5367 29.7123 15.23C29.7123 14.9967 29.6389 14.8 29.4923 14.64C29.3456 14.48 29.1556 14.3567 28.9223 14.27C28.6956 14.1767 28.4389 14.0933 28.1523 14.02C27.8723 13.9467 27.5923 13.8667 27.3123 13.78C27.0323 13.6867 26.7756 13.5767 26.5423 13.45C26.3156 13.3233 26.1289 13.1433 25.9823 12.91C25.8356 12.6767 25.7623 12.4 25.7623 12.08C25.7623 11.5333 25.9789 11.09 26.4123 10.75C26.8456 10.4033 27.3923 10.23 28.0523 10.23C29.0456 10.23 29.8356 10.54 30.4223 11.16L29.9223 11.77C29.4356 11.2367 28.7923 10.97 27.9923 10.97C27.5923 10.97 27.2623 11.07 27.0023 11.27C26.7489 11.4633 26.6223 11.7167 26.6223 12.03C26.6223 12.2633 26.7189 12.4567 26.9123 12.61C27.1123 12.7633 27.3556 12.8767 27.6423 12.95C27.9356 13.0233 28.2523 13.1167 28.5923 13.23C28.9389 13.3367 29.2556 13.4533 29.5423 13.58C29.8356 13.7 30.0789 13.8967 30.2723 14.17C30.4723 14.4433 30.5723 14.7733 30.5723 15.16C30.5723 15.7067 30.3689 16.17 29.9623 16.55C29.5623 16.93 28.9456 17.12 28.1123 17.12ZM37.624 17H36.674L36.084 15.52H32.764L32.174 17H31.224L33.904 10.33H34.934L37.624 17ZM35.834 14.78L34.424 11.19L33.004 14.78H35.834ZM43.536 17H42.556L40.856 14.35H39.526V17H38.696V10.33H41.376C41.996 10.33 42.4993 10.5133 42.886 10.88C43.2727 11.2467 43.466 11.7333 43.466 12.34C43.466 12.9133 43.2993 13.37 42.966 13.71C42.6327 14.05 42.2227 14.24 41.736 14.28L43.536 17ZM41.276 13.62C41.6693 13.62 41.9893 13.5 42.236 13.26C42.4827 13.02 42.606 12.7133 42.606 12.34C42.606 11.9667 42.4827 11.6633 42.236 11.43C41.9893 11.19 41.6693 11.07 41.276 11.07H39.526V13.62H41.276Z" fill="#0D0F52"/>
<path opacity="0.5" d="M9.77547 53H5.19547V52.34C5.8888 51.7933 6.42547 51.36 6.80547 51.04C7.19213 50.7133 7.56213 50.37 7.91547 50.01C8.27547 49.6433 8.5288 49.32 8.67547 49.04C8.82213 48.7533 8.89547 48.47 8.89547 48.19C8.89547 47.79 8.7588 47.4867 8.48547 47.28C8.21213 47.0733 7.88547 46.97 7.50547 46.97C6.7388 46.97 6.13547 47.25 5.69547 47.81L5.18547 47.28C5.4388 46.9467 5.7688 46.69 6.17547 46.51C6.5888 46.3233 7.03213 46.23 7.50547 46.23C8.11213 46.23 8.63547 46.4 9.07547 46.74C9.52213 47.08 9.74547 47.5633 9.74547 48.19C9.74547 48.81 9.4788 49.43 8.94547 50.05C8.41213 50.6633 7.5988 51.4 6.50547 52.26H9.77547V53ZM13.7944 53.12C13.3544 53.12 12.9644 53.02 12.6244 52.82C12.291 52.6133 12.0244 52.34 11.8244 52C11.631 51.66 11.4844 51.2933 11.3844 50.9C11.291 50.5067 11.2444 50.0967 11.2444 49.67C11.2444 49.2433 11.291 48.8333 11.3844 48.44C11.4844 48.0467 11.631 47.6833 11.8244 47.35C12.0244 47.01 12.291 46.74 12.6244 46.54C12.9644 46.3333 13.3544 46.23 13.7944 46.23C14.2277 46.23 14.6144 46.3333 14.9544 46.54C15.2944 46.74 15.561 47.01 15.7544 47.35C15.9544 47.6833 16.101 48.0467 16.1944 48.44C16.2944 48.8333 16.3444 49.2433 16.3444 49.67C16.3444 50.0967 16.2944 50.5067 16.1944 50.9C16.101 51.2933 15.9544 51.66 15.7544 52C15.561 52.34 15.2944 52.6133 14.9544 52.82C14.6144 53.02 14.2277 53.12 13.7944 53.12ZM12.7944 51.97C13.061 52.2433 13.3944 52.38 13.7944 52.38C14.1944 52.38 14.5277 52.2433 14.7944 51.97C15.061 51.69 15.2444 51.3567 15.3444 50.97C15.4444 50.5833 15.4944 50.15 15.4944 49.67C15.4944 49.19 15.4444 48.7567 15.3444 48.37C15.2444 47.9833 15.061 47.6533 14.7944 47.38C14.5277 47.1067 14.1944 46.97 13.7944 46.97C13.3944 46.97 13.061 47.1067 12.7944 47.38C12.5277 47.6533 12.3444 47.9833 12.2444 48.37C12.1444 48.7567 12.0944 49.19 12.0944 49.67C12.0944 50.15 12.1444 50.5833 12.2444 50.97C12.3444 51.3567 12.5277 51.69 12.7944 51.97ZM22.0574 53H21.0974L19.3574 50.83L18.5574 51.62V53H17.8074V46.33H18.5574V50.74L21.0974 48.17H22.0474L19.9074 50.36L22.0574 53ZM28.1123 53.12C27.0323 53.12 26.1789 52.7667 25.5523 52.06L26.0423 51.43C26.6089 52.0633 27.3089 52.38 28.1423 52.38C28.6823 52.38 29.0789 52.2667 29.3323 52.04C29.5856 51.8067 29.7123 51.5367 29.7123 51.23C29.7123 50.9967 29.6389 50.8 29.4923 50.64C29.3456 50.48 29.1556 50.3567 28.9223 50.27C28.6956 50.1767 28.4389 50.0933 28.1523 50.02C27.8723 49.9467 27.5923 49.8667 27.3123 49.78C27.0323 49.6867 26.7756 49.5767 26.5423 49.45C26.3156 49.3233 26.1289 49.1433 25.9823 48.91C25.8356 48.6767 25.7623 48.4 25.7623 48.08C25.7623 47.5333 25.9789 47.09 26.4123 46.75C26.8456 46.4033 27.3923 46.23 28.0523 46.23C29.0456 46.23 29.8356 46.54 30.4223 47.16L29.9223 47.77C29.4356 47.2367 28.7923 46.97 27.9923 46.97C27.5923 46.97 27.2623 47.07 27.0023 47.27C26.7489 47.4633 26.6223 47.7167 26.6223 48.03C26.6223 48.2633 26.7189 48.4567 26.9123 48.61C27.1123 48.7633 27.3556 48.8767 27.6423 48.95C27.9356 49.0233 28.2523 49.1167 28.5923 49.23C28.9389 49.3367 29.2556 49.4533 29.5423 49.58C29.8356 49.7 30.0789 49.8967 30.2723 50.17C30.4723 50.4433 30.5723 50.7733 30.5723 51.16C30.5723 51.7067 30.3689 52.17 29.9623 52.55C29.5623 52.93 28.9456 53.12 28.1123 53.12ZM37.624 53H36.674L36.084 51.52H32.764L32.174 53H31.224L33.904 46.33H34.934L37.624 53ZM35.834 50.78L34.424 47.19L33.004 50.78H35.834ZM43.536 53H42.556L40.856 50.35H39.526V53H38.696V46.33H41.376C41.996 46.33 42.4993 46.5133 42.886 46.88C43.2727 47.2467 43.466 47.7333 43.466 48.34C43.466 48.9133 43.2993 49.37 42.966 49.71C42.6327 50.05 42.2227 50.24 41.736 50.28L43.536 53ZM41.276 49.62C41.6693 49.62 41.9893 49.5 42.236 49.26C42.4827 49.02 42.606 48.7133 42.606 48.34C42.606 47.9667 42.4827 47.6633 42.236 47.43C41.9893 47.19 41.6693 47.07 41.276 47.07H39.526V49.62H41.276Z" fill="#0D0F52"/>
<path opacity="0.5" d="M9.7557 89H8.9257V83.43L7.8557 84.56L7.3557 84.05L9.0257 82.33H9.7557V89ZM13.7944 89.12C13.3544 89.12 12.9644 89.02 12.6244 88.82C12.291 88.6133 12.0244 88.34 11.8244 88C11.631 87.66 11.4844 87.2933 11.3844 86.9C11.291 86.5067 11.2444 86.0967 11.2444 85.67C11.2444 85.2433 11.291 84.8333 11.3844 84.44C11.4844 84.0467 11.631 83.6833 11.8244 83.35C12.0244 83.01 12.291 82.74 12.6244 82.54C12.9644 82.3333 13.3544 82.23 13.7944 82.23C14.2277 82.23 14.6144 82.3333 14.9544 82.54C15.2944 82.74 15.561 83.01 15.7544 83.35C15.9544 83.6833 16.101 84.0467 16.1944 84.44C16.2944 84.8333 16.3444 85.2433 16.3444 85.67C16.3444 86.0967 16.2944 86.5067 16.1944 86.9C16.101 87.2933 15.9544 87.66 15.7544 88C15.561 88.34 15.2944 88.6133 14.9544 88.82C14.6144 89.02 14.2277 89.12 13.7944 89.12ZM12.7944 87.97C13.061 88.2433 13.3944 88.38 13.7944 88.38C14.1944 88.38 14.5277 88.2433 14.7944 87.97C15.061 87.69 15.2444 87.3567 15.3444 86.97C15.4444 86.5833 15.4944 86.15 15.4944 85.67C15.4944 85.19 15.4444 84.7567 15.3444 84.37C15.2444 83.9833 15.061 83.6533 14.7944 83.38C14.5277 83.1067 14.1944 82.97 13.7944 82.97C13.3944 82.97 13.061 83.1067 12.7944 83.38C12.5277 83.6533 12.3444 83.9833 12.2444 84.37C12.1444 84.7567 12.0944 85.19 12.0944 85.67C12.0944 86.15 12.1444 86.5833 12.2444 86.97C12.3444 87.3567 12.5277 87.69 12.7944 87.97ZM22.0574 89H21.0974L19.3574 86.83L18.5574 87.62V89H17.8074V82.33H18.5574V86.74L21.0974 84.17H22.0474L19.9074 86.36L22.0574 89ZM28.1123 89.12C27.0323 89.12 26.1789 88.7667 25.5523 88.06L26.0423 87.43C26.6089 88.0633 27.3089 88.38 28.1423 88.38C28.6823 88.38 29.0789 88.2667 29.3323 88.04C29.5856 87.8067 29.7123 87.5367 29.7123 87.23C29.7123 86.9967 29.6389 86.8 29.4923 86.64C29.3456 86.48 29.1556 86.3567 28.9223 86.27C28.6956 86.1767 28.4389 86.0933 28.1523 86.02C27.8723 85.9467 27.5923 85.8667 27.3123 85.78C27.0323 85.6867 26.7756 85.5767 26.5423 85.45C26.3156 85.3233 26.1289 85.1433 25.9823 84.91C25.8356 84.6767 25.7623 84.4 25.7623 84.08C25.7623 83.5333 25.9789 83.09 26.4123 82.75C26.8456 82.4033 27.3923 82.23 28.0523 82.23C29.0456 82.23 29.8356 82.54 30.4223 83.16L29.9223 83.77C29.4356 83.2367 28.7923 82.97 27.9923 82.97C27.5923 82.97 27.2623 83.07 27.0023 83.27C26.7489 83.4633 26.6223 83.7167 26.6223 84.03C26.6223 84.2633 26.7189 84.4567 26.9123 84.61C27.1123 84.7633 27.3556 84.8767 27.6423 84.95C27.9356 85.0233 28.2523 85.1167 28.5923 85.23C28.9389 85.3367 29.2556 85.4533 29.5423 85.58C29.8356 85.7 30.0789 85.8967 30.2723 86.17C30.4723 86.4433 30.5723 86.7733 30.5723 87.16C30.5723 87.7067 30.3689 88.17 29.9623 88.55C29.5623 88.93 28.9456 89.12 28.1123 89.12ZM37.624 89H36.674L36.084 87.52H32.764L32.174 89H31.224L33.904 82.33H34.934L37.624 89ZM35.834 86.78L34.424 83.19L33.004 86.78H35.834ZM43.536 89H42.556L40.856 86.35H39.526V89H38.696V82.33H41.376C41.996 82.33 42.4993 82.5133 42.886 82.88C43.2727 83.2467 43.466 83.7333 43.466 84.34C43.466 84.9133 43.2993 85.37 42.966 85.71C42.6327 86.05 42.2227 86.24 41.736 86.28L43.536 89ZM41.276 85.62C41.6693 85.62 41.9893 85.5 42.236 85.26C42.4827 85.02 42.606 84.7133 42.606 84.34C42.606 83.9667 42.4827 83.6633 42.236 83.43C41.9893 83.19 41.6693 83.07 41.276 83.07H39.526V85.62H41.276Z" fill="#0D0F52"/>
<path opacity="0.5" d="M19.1311 125.12C18.6911 125.12 18.3011 125.02 17.9611 124.82C17.6278 124.613 17.3611 124.34 17.1611 124C16.9678 123.66 16.8211 123.293 16.7211 122.9C16.6278 122.507 16.5811 122.097 16.5811 121.67C16.5811 121.243 16.6278 120.833 16.7211 120.44C16.8211 120.047 16.9678 119.683 17.1611 119.35C17.3611 119.01 17.6278 118.74 17.9611 118.54C18.3011 118.333 18.6911 118.23 19.1311 118.23C19.5644 118.23 19.9511 118.333 20.2911 118.54C20.6311 118.74 20.8978 119.01 21.0911 119.35C21.2911 119.683 21.4378 120.047 21.5311 120.44C21.6311 120.833 21.6811 121.243 21.6811 121.67C21.6811 122.097 21.6311 122.507 21.5311 122.9C21.4378 123.293 21.2911 123.66 21.0911 124C20.8978 124.34 20.6311 124.613 20.2911 124.82C19.9511 125.02 19.5644 125.12 19.1311 125.12ZM18.1311 123.97C18.3978 124.243 18.7311 124.38 19.1311 124.38C19.5311 124.38 19.8644 124.243 20.1311 123.97C20.3978 123.69 20.5811 123.357 20.6811 122.97C20.7811 122.583 20.8311 122.15 20.8311 121.67C20.8311 121.19 20.7811 120.757 20.6811 120.37C20.5811 119.983 20.3978 119.653 20.1311 119.38C19.8644 119.107 19.5311 118.97 19.1311 118.97C18.7311 118.97 18.3978 119.107 18.1311 119.38C17.8644 119.653 17.6811 119.983 17.5811 120.37C17.4811 120.757 17.4311 121.19 17.4311 121.67C17.4311 122.15 17.4811 122.583 17.5811 122.97C17.6811 123.357 17.8644 123.69 18.1311 123.97ZM28.1123 125.12C27.0323 125.12 26.1789 124.767 25.5523 124.06L26.0423 123.43C26.6089 124.063 27.3089 124.38 28.1423 124.38C28.6823 124.38 29.0789 124.267 29.3323 124.04C29.5856 123.807 29.7123 123.537 29.7123 123.23C29.7123 122.997 29.6389 122.8 29.4923 122.64C29.3456 122.48 29.1556 122.357 28.9223 122.27C28.6956 122.177 28.4389 122.093 28.1523 122.02C27.8723 121.947 27.5923 121.867 27.3123 121.78C27.0323 121.687 26.7756 121.577 26.5423 121.45C26.3156 121.323 26.1289 121.143 25.9823 120.91C25.8356 120.677 25.7623 120.4 25.7623 120.08C25.7623 119.533 25.9789 119.09 26.4123 118.75C26.8456 118.403 27.3923 118.23 28.0523 118.23C29.0456 118.23 29.8356 118.54 30.4223 119.16L29.9223 119.77C29.4356 119.237 28.7923 118.97 27.9923 118.97C27.5923 118.97 27.2623 119.07 27.0023 119.27C26.7489 119.463 26.6223 119.717 26.6223 120.03C26.6223 120.263 26.7189 120.457 26.9123 120.61C27.1123 120.763 27.3556 120.877 27.6423 120.95C27.9356 121.023 28.2523 121.117 28.5923 121.23C28.9389 121.337 29.2556 121.453 29.5423 121.58C29.8356 121.7 30.0789 121.897 30.2723 122.17C30.4723 122.443 30.5723 122.773 30.5723 123.16C30.5723 123.707 30.3689 124.17 29.9623 124.55C29.5623 124.93 28.9456 125.12 28.1123 125.12ZM37.624 125H36.674L36.084 123.52H32.764L32.174 125H31.224L33.904 118.33H34.934L37.624 125ZM35.834 122.78L34.424 119.19L33.004 122.78H35.834ZM43.536 125H42.556L40.856 122.35H39.526V125H38.696V118.33H41.376C41.996 118.33 42.4993 118.513 42.886 118.88C43.2727 119.247 43.466 119.733 43.466 120.34C43.466 120.913 43.2993 121.37 42.966 121.71C42.6327 122.05 42.2227 122.24 41.736 122.28L43.536 125ZM41.276 121.62C41.6693 121.62 41.9893 121.5 42.236 121.26C42.4827 121.02 42.606 120.713 42.606 120.34C42.606 119.967 42.4827 119.663 42.236 119.43C41.9893 119.19 41.6693 119.07 41.276 119.07H39.526V121.62H41.276Z" fill="#0D0F52"/>
<defs>
<filter id="filter0_d_1_124" x="68" y="103" width="32" height="59" filterUnits="userSpaceOnUse" color-interpolation-filters="sRGB">
<feFlood flood-opacity="0" result="BackgroundImageFix"/>
<feColorMatrix in="SourceAlpha" type="matrix" values="0 0 0 0 0 0 0 0 0 0 0 0 0 0 0 0 0 0 127 0" result="hardAlpha"/>
<feMorphology radius="20" operator="erode" in="SourceAlpha" result="effect1_dropShadow_1_124"/>
<feOffset dy="32"/>
<feGaussianBlur stdDeviation="13"/>
<feColorMatrix type="matrix" values="0 0 0 0 0.116319 0 0 0 0 0.278708 0 0 0 0 0.416667 0 0 0 0.24 0"/>
<feBlend mode="normal" in2="BackgroundImageFix" result="effect1_dropShadow_1_124"/>
<feBlend mode="normal" in="SourceGraphic" in2="effect1_dropShadow_1_124" result="shape"/>
</filter>
<filter id="filter1_d_1_124" x="108.833" y="29" width="32" height="133" filterUnits="userSpaceOnUse" color-interpolation-filters="sRGB">
<feFlood flood-opacity="0" result="BackgroundImageFix"/>
<feColorMatrix in="SourceAlpha" type="matrix" values="0 0 0 0 0 0 0 0 0 0 0 0 0 0 0 0 0 0 127 0" result="hardAlpha"/>
<feMorphology radius="20" operator="erode" in="SourceAlpha" result="effect1_dropShadow_1_124"/>
<feOffset dy="32"/>
<feGaussianBlur stdDeviation="13"/>
<feColorMatrix type="matrix" values="0 0 0 0 0.116319 0 0 0 0 0.278708 0 0 0 0 0.416667 0 0 0 0.24 0"/>
<feBlend mode="normal" in2="BackgroundImageFix" result="effect1_dropShadow_1_124"/>
<feBlend mode="normal" in="SourceGraphic" in2="effect1_dropShadow_1_124" result="shape"/>
</filter>
<filter id="filter2_d_1_124" x="149.667" y="62" width="32" height="100" filterUnits="userSpaceOnUse" color-interpolation-filters="sRGB">
<feFlood flood-opacity="0" result="BackgroundImageFix"/>
<feColorMatrix in="SourceAlpha" type="matrix" values="0 0 0 0 0 0 0 0 0 0 0 0 0 0 0 0 0 0 127 0" result="hardAlpha"/>
<feMorphology radius="20" operator="erode" in="SourceAlpha" result="effect1_dropShadow_1_124"/>
<feOffset dy="32"/>
<feGaussianBlur stdDeviation="13"/>
<feColorMatrix type="matrix" values="0 0 0 0 0.116319 0 0 0 0 0.278708 0 0 0 0 0.416667 0 0 0 0.24 0"/>
<feBlend mode="normal" in2="BackgroundImageFix" result="effect1_dropShadow_1_124"/>
<feBlend mode="normal" in="SourceGraphic" in2="effect1_dropShadow_1_124" result="shape"/>
</filter>
<filter id="filter3_d_1_124" x="190.5" y="87" width="32" height="75" filterUnits="userSpaceOnUse" color-interpolation-filters="sRGB">
<feFlood flood-opacity="0" result="BackgroundImageFix"/>
<feColorMatrix in="SourceAlpha" type="matrix" values="0 0 0 0 0 0 0 0 0 0 0 0 0 0 0 0 0 0 127 0" result="hardAlpha"/>
<feMorphology radius="20" operator="erode" in="SourceAlpha" result="effect1_dropShadow_1_124"/>
<feOffset dy="32"/>
<feGaussianBlur stdDeviation="13"/>
<feColorMatrix type="matrix" values="0 0 0 0 0.116319 0 0 0 0 0.278708 0 0 0 0 0.416667 0 0 0 0.24 0"/>
<feBlend mode="normal" in2="BackgroundImageFix" result="effect1_dropShadow_1_124"/>
<feBlend mode="normal" in="SourceGraphic" in2="effect1_dropShadow_1_124" result="shape"/>
</filter>
<filter id="filter4_d_1_124" x="231.333" y="26" width="32" height="136" filterUnits="userSpaceOnUse" color-interpolation-filters="sRGB">
<feFlood flood-opacity="0" result="BackgroundImageFix"/>
<feColorMatrix in="SourceAlpha" type="matrix" values="0 0 0 0 0 0 0 0 0 0 0 0 0 0 0 0 0 0 127 0" result="hardAlpha"/>
<feMorphology radius="20" operator="erode" in="SourceAlpha" result="effect1_dropShadow_1_124"/>
<feOffset dy="32"/>
<feGaussianBlur stdDeviation="13"/>
<feColorMatrix type="matrix" values="0 0 0 0 0.116319 0 0 0 0 0.278708 0 0 0 0 0.416667 0 0 0 0.24 0"/>
<feBlend mode="normal" in2="BackgroundImageFix" result="effect1_dropShadow_1_124"/>
<feBlend mode="normal" in="SourceGraphic" in2="effect1_dropShadow_1_124" result="shape"/>
</filter>
<filter id="filter5_d_1_124" x="272.167" y="58" width="32" height="104" filterUnits="userSpaceOnUse" color-interpolation-filters="sRGB">
<feFlood flood-opacity="0" result="BackgroundImageFix"/>
<feColorMatrix in="SourceAlpha" type="matrix" values="0 0 0 0 0 0 0 0 0 0 0 0 0 0 0 0 0 0 127 0" result="hardAlpha"/>
<feMorphology radius="20" operator="erode" in="SourceAlpha" result="effect1_dropShadow_1_124"/>
<feOffset dy="32"/>
<feGaussianBlur stdDeviation="13"/>
<feColorMatrix type="matrix" values="0 0 0 0 0.116319 0 0 0 0 0.278708 0 0 0 0 0.416667 0 0 0 0.24 0"/>
<feBlend mode="normal" in2="BackgroundImageFix" result="effect1_dropShadow_1_124"/>
<feBlend mode="normal" in="SourceGraphic" in2="effect1_dropShadow_1_124" result="shape"/>
</filter>
<filter id="filter6_d_1_124" x="313" y="12" width="32" height="150" filterUnits="userSpaceOnUse" color-interpolation-filters="sRGB">
<feFlood flood-opacity="0" result="BackgroundImageFix"/>
<feColorMatrix in="SourceAlpha" type="matrix" values="0 0 0 0 0 0 0 0 0 0 0 0 0 0 0 0 0 0 127 0" result="hardAlpha"/>
<feMorphology radius="20" operator="erode" in="SourceAlpha" result="effect1_dropShadow_1_124"/>
<feOffset dy="32"/>
<feGaussianBlur stdDeviation="13"/>
<feColorMatrix type="matrix" values="0 0 0 0 0.116319 0 0 0 0 0.278708 0 0 0 0 0.416667 0 0 0 0.24 0"/>
<feBlend mode="normal" in2="BackgroundImageFix" result="effect1_dropShadow_1_124"/>
<feBlend mode="normal" in="SourceGraphic" in2="effect1_dropShadow_1_124" result="shape"/>
</filter>
</defs>
</svg>
